<?xml version="1.0" encoding="UTF-8"?><svg id="b" xmlns="http://www.w3.org/2000/svg" viewBox="0 0 65.43 70.16"><g id="c"><path d="M47.72,10.07c-.23-2.02-1.8-2.68-2.52-3.13-.69-.43-1.41-.8-1.62-1.74-.38-1.65-1.28-2.86-1.94-3.25-.87-.52-1.46-.18-3.12-.49-1.66-.31-2.09-.83-3.09-.66-.75.13-2.03.94-2.97,2.35-.53.8-1.34.89-2.14,1.05-.84.17-2.54.22-3.47,2.03-.81,1.57-1.64,3.8-1.64,3.8l9.03,1.66,4.63.85,9.03,1.66s.02-2.38-.18-4.14Z" style="fill:#804327;"/><path d="M48.67,15.14l-24.49-4.51.32-.86c.03-.09.85-2.29,1.67-3.89,1-1.94,2.76-2.23,3.71-2.38.11-.02.21-.03.3-.05l.21-.04c.72-.14,1.14-.24,1.43-.68,1.08-1.62,2.52-2.51,3.48-2.68.78-.14,1.33.05,1.91.26.38.13.82.28,1.45.4.63.12,1.09.13,1.5.14.62.02,1.2.03,1.88.44.83.5,1.86,1.85,2.3,3.75.12.52.48.76,1.1,1.14l.18.11c.08.05.17.1.26.16.83.48,2.37,1.37,2.62,3.54h0c.2,1.79.18,4.13.18,4.23v.92ZM26.28,9.45l20.84,3.83c-.01-.84-.05-2.1-.17-3.12h0c-.16-1.39-1.1-1.94-1.85-2.38-.11-.07-.22-.13-.31-.18l-.17-.11c-.68-.42-1.53-.94-1.8-2.12-.33-1.45-1.12-2.49-1.58-2.76-.34-.2-.58-.21-1.13-.22-.44-.01-.98-.03-1.73-.16-.75-.14-1.27-.32-1.68-.46-.51-.18-.75-.26-1.13-.19-.53.09-1.64.78-2.46,2.02-.67,1-1.65,1.19-2.43,1.34l-.2.04c-.11.02-.23.04-.35.06-.86.14-1.93.31-2.58,1.56-.47.92-.96,2.08-1.27,2.86Z"/><path d="M64.29,27.33c-1.3-9.94-8.29-15.11-10.57-16.55-.42-.26-.96-.3-1.38-.09-.86.42-2.34,1.13-3.11,1.39-1.38.47-2.93.25-4.47.03-1.12-.16-15.29-2.77-16.39-3.02-1.52-.34-3.04-.68-4.17-1.61-.62-.52-1.75-1.71-2.41-2.41-.32-.35-.84-.51-1.33-.41-2.64.53-11.01,2.87-15.77,11.71C-.99,26.95-.65,35.25,6.83,43.16c7.35,7.78,14.92,9.83,21,11,.04,0,.07.02.11.03.19.04.39.07.58.11.2.04.39.07.58.11.04,0,.08.01.11.02,6.1,1.06,13.9,1.85,23.54-2.81,9.8-4.74,13.08-12.37,11.53-24.28Z" style="fill:#804327;"/><path d="M37.49,56.01c-2.95,0-5.72-.35-8.38-.82-.05,0-.1-.01-.15-.02l-1.17-.21s-.1-.02-.14-.03c-6.86-1.33-14.2-3.62-21.39-11.23C-1.29,35.69-1.98,27.15,4.02,16,8.95,6.83,17.74,4.42,20.31,3.9c.74-.15,1.54.1,2.05.64,1.05,1.13,1.9,1.98,2.33,2.34.98.81,2.37,1.13,3.84,1.45,1.06.24,15.26,2.85,16.33,3.01,1.49.22,2.9.42,4.11,0,.54-.18,1.61-.67,3.01-1.36.66-.32,1.5-.27,2.14.13,2.22,1.4,9.58,6.78,10.92,17.11,1.64,12.56-2.05,20.29-11.96,25.08-5.79,2.8-10.92,3.7-15.61,3.7ZM20.75,5.41s-.09,0-.13.01c-2.41.49-10.62,2.74-15.24,11.31-2.84,5.27-4.07,9.84-3.78,13.98.3,4.21,2.19,8.11,5.79,11.92,6.9,7.3,13.97,9.49,20.58,10.78h.06s.03.02.04.02l1.17.21s.03,0,.05,0h.06c6.64,1.17,14.03,1.63,23.07-2.74,4.72-2.28,7.88-5.25,9.66-9.08,1.74-3.76,2.21-8.47,1.44-14.41-1.26-9.65-8.14-14.68-10.21-16-.19-.12-.45-.14-.63-.05-1.03.51-2.43,1.17-3.2,1.43-1.56.53-3.22.29-4.83.06-1.16-.17-15.3-2.77-16.45-3.03-1.59-.36-3.23-.72-4.49-1.77-.63-.52-1.69-1.63-2.48-2.48-.11-.12-.29-.19-.48-.19Z"/><path d="M37.87,60.55c.06.08.12.15.17.23.46.73.58,1.51.32,2.34-.24.77-.73,1.35-1.39,1.79-.27.18-.55.32-.86.42-.13.04-.2.11-.24.24-.16.56-.33,1.12-.49,1.67-.15.52-.3,1.03-.46,1.55-.27.87-1.18,1.45-2.08,1.36-.08,0-.17-.02-.25-.04-4.5-.83-9.01-1.66-13.51-2.48-.92-.17-1.65-.92-1.7-1.9-.01-.27.03-.54.05-.81.07-.93.14-1.85.21-2.78,0-.09-.03-.14-.09-.19-.31-.26-.59-.56-.8-.9-.45-.71-.66-1.47-.52-2.31.13-.77.53-1.38,1.17-1.83.06-.04.12-.07.18-.1-.05-.1-.12-.15-.18-.21-.64-.7-1.05-1.51-1.1-2.47-.04-.69.12-1.32.52-1.89.02-.03.04-.06.06-.09,0,0,0-.01,0-.03-.34-.33-.68-.66-1-1-3.55-3.86-5.53-8.41-5.89-13.65-.14-2.11.03-4.19.52-6.25,1.26-5.35,4.12-9.67,8.57-12.89,3.37-2.45,7.16-3.8,11.32-4.09,1.17-.08,2.33-.06,3.5.04,1.23.11,2.44.33,3.64.64,2.64.7,5.08,1.84,7.28,3.47,4.02,2.97,6.74,6.85,8.15,11.64.6,2.03.88,4.11.86,6.22-.01,1.71-.21,3.39-.63,5.05-1.32,5.32-4.23,9.56-8.68,12.75-1.28.92-2.65,1.67-4.1,2.28-.04.02-.08.04-.12.05-.1.02-.11.08-.08.17.09.38.11.75.05,1.14-.11.73-.45,1.34-.95,1.86-.36.37-.77.66-1.24.88-.06.03-.13.05-.2.11ZM40.78,54.44c6.76-3.19,11.99-10.64,11.42-19.63-.58-9.17-7.36-17.08-16.84-18.73-9.24-1.61-18.28,3.28-22.06,11.67-3.65,8.09-1.5,16.9,3.71,22.3-.17-.31-.28-.63-.36-.97-.18-.78-.15-1.55.2-2.28.41-.88,1.11-1.44,2.05-1.68.16-.04.25-.11.31-.27.15-.38.32-.76.49-1.13.13-.28.22-.57.38-.83.5-.78,1.37-1.14,2.3-.97,5.43,1,10.86,2,16.29,3,.15.03.3.07.45.12.78.29,1.35,1.06,1.39,1.9.03.63.06,1.26.09,1.89,0,.13.05.21.16.29.68.46,1.12,1.09,1.29,1.9.2.94-.03,1.8-.54,2.59-.2.3-.44.57-.73.83ZM33.4,59.7c-.06-.08-.11-.14-.15-.2-.48-.65-.67-1.38-.55-2.18.11-.68.42-1.26.88-1.76.39-.42.85-.73,1.37-.97-.99-1.12-1.1-2.35-.51-3.68-3.41-.63-6.82-1.26-10.25-1.89.06.69-.04,1.33-.36,1.93-.32.6-.8,1.03-1.42,1.33.06.07.11.11.15.16.51.57.86,1.22,1,1.98.23,1.29-.32,2.52-1.44,3.14-.02.01-.05.03-.06.07.06.06.12.13.18.2.38.43.66.92.81,1.48.14.54.15,1.08-.02,1.61-.33,1-1.04,1.6-2.04,1.86-.61.16-1.22.12-1.83-.04-.15-.04-.15-.04-.16.11-.07.89-.13,1.78-.21,2.67-.03.4.2.68.56.74,4.49.82,8.98,1.65,13.47,2.48.36.07.69-.09.8-.48.07-.26.15-.52.23-.77.18-.6.35-1.2.53-1.79.01-.05.05-.1,0-.16-.85-.09-1.46-.3-2-.74-.91-.74-1.27-1.69-1-2.85.13-.58.45-1.05.86-1.46.33-.32.71-.56,1.15-.76ZM39.16,48.49s.02-.07.02-.1c-.02-.47-.04-.93-.07-1.4-.01-.24-.15-.42-.34-.56-.11-.08-.25-.1-.38-.13-4.4-.81-8.8-1.62-13.2-2.43-1.05-.19-2.09-.39-3.14-.58-.37-.07-.7.11-.85.45-.05.1-.09.21-.14.31-.15.34-.29.67-.44,1.02.17.06.34.1.5.16,1.08.41,1.94,1.1,2.52,2.11.05.09.11.14.23.16,3.8.7,7.6,1.39,11.4,2.1.12.02.2,0,.29-.08.44-.36.93-.63,1.46-.81.69-.23,1.39-.3,2.13-.23ZM39.09,49.88c-.47-.08-.97-.05-1.45.09-.86.26-1.56.74-1.97,1.57-.33.66-.33,1.33.13,1.94.3.41.73.63,1.21.72,1.13.21,2.12-.09,2.96-.86.33-.3.57-.67.7-1.1.19-.64.1-1.22-.35-1.73-.32-.36-.73-.54-1.24-.64ZM20.22,46.4c-.18-.03-.36-.04-.53-.04-.99,0-1.76.78-1.78,1.77,0,.57.15,1.09.47,1.56.62.93,1.48,1.47,2.61,1.53.79.04,1.48-.41,1.75-1.13.16-.41.17-.83.06-1.25-.36-1.33-1.28-2.09-2.58-2.44ZM35.62,59.42c.9.14,1.71-.07,2.43-.63.28-.21.5-.48.65-.8.37-.75.17-1.56-.51-2.03-.22-.15-.45-.26-.71-.32-.75-.19-1.46-.08-2.14.26-.51.26-.92.63-1.17,1.16-.35.75-.13,1.55.56,2.02.27.18.57.29.88.35ZM20.08,56.57c.39.07.77.07,1.14-.07.57-.21.93-.61,1.03-1.21.07-.43,0-.83-.19-1.22-.27-.57-.7-1.01-1.24-1.33-.51-.3-1.06-.44-1.65-.37-.63.07-1.11.38-1.36.98-.17.43-.16.88,0,1.31.4,1.05,1.19,1.65,2.26,1.91ZM34.28,64.15c.27.04.54.04.8,0,.7-.12,1.3-.4,1.71-1,.49-.69.35-1.52-.34-2.02-.07-.05-.15-.1-.23-.14-.82-.4-1.64-.36-2.45.03-.38.18-.69.45-.91.81-.4.66-.26,1.42.34,1.9.31.25.68.37,1.07.43ZM19.65,57.83c-.31-.06-.75-.07-1.18.11-.58.24-.91.76-.88,1.39.02.36.14.68.34.97.44.65,1.06,1.05,1.83,1.19.44.08.88.05,1.28-.16.4-.21.66-.53.74-.98.1-.56-.08-1.04-.41-1.47-.41-.53-.94-.87-1.72-1.06Z"/><path d="M39.69,68.4c-.13.72-.8,1.19-1.51,1.06-.73-.13-1.21-.8-1.08-1.53.13-.72.82-1.2,1.54-1.06.72.13,1.18.81,1.05,1.53ZM39.48,68.36c.11-.59-.29-1.17-.88-1.27-.59-.11-1.16.29-1.27.88-.11.6.29,1.18.89,1.28.59.1,1.16-.3,1.26-.89Z" style="fill:#252021;"/><path d="M40.78,54.44c.3-.26.54-.53.73-.83.51-.79.74-1.65.54-2.59-.17-.81-.62-1.44-1.29-1.9-.12-.08-.16-.16-.16-.29-.03-.63-.06-1.26-.09-1.89-.04-.83-.6-1.61-1.39-1.9-.15-.05-.3-.1-.45-.12-5.43-1-10.86-2-16.29-3-.94-.17-1.8.19-2.3.97-.17.26-.26.55-.38.83-.17.37-.34.75-.49,1.13-.06.15-.15.22-.31.27-.94.24-1.63.8-2.05,1.68-.34.73-.38,1.5-.2,2.28.08.34.2.66.36.97-5.21-5.4-7.35-14.2-3.71-22.3,3.78-8.39,12.82-13.28,22.06-11.67,9.48,1.66,16.26,9.56,16.84,18.73.57,8.99-4.66,16.44-11.42,19.63ZM31.23,39.59c-.43-.09-.89-.18-1.36-.3-1.1-.28-2.17-.65-3.21-1.1-1.84-.79-3.54-1.81-5.14-3.01-.66-.5-1.3-1.03-1.92-1.58-.09-.08-.12-.15-.06-.27.08-.17.13-.36.13-.55,0-.38-.23-.6-.6-.56-.19.02-.38.08-.54.17-.68.37-1.17.91-1.45,1.63-.07.19-.11.38-.08.58.05.28.25.45.53.44.22,0,.42-.08.61-.17.17-.09.17-.09.32.05,1.28,1.16,2.65,2.2,4.11,3.11,2.24,1.39,4.62,2.43,7.18,3.05,1.63.39,3.29.6,4.97.61,2.15.02,4.27-.24,6.35-.75,1.26-.31,2.5-.7,3.71-1.17q.22-.08.37.08c.14.15.28.28.47.36.3.13.57.03.7-.27.06-.14.1-.28.1-.43.02-.8-.25-1.5-.75-2.11-.1-.11-.21-.21-.33-.29-.08-.05-.17-.1-.27-.12-.26-.06-.46.03-.58.27-.1.19-.12.4-.12.62,0,.2,0,.2-.18.27-1.62.63-3.29,1.11-5,1.42-2.64.47-5.28.53-7.96.04ZM26.69,27.1c.15.03.31.05.46.08.47.09.91-.19,1.02-.65.11-.47-.16-.94-.62-1.05-1.05-.25-2.11-.32-3.18-.13-1.3.23-2.44.81-3.48,1.59-.38.28-.45.8-.18,1.18.27.39.78.49,1.18.24.15-.09.29-.2.44-.3,1.33-.91,2.77-1.29,4.37-.97ZM40.27,27.82c-.17-.03-.35-.07-.52-.09-.5-.07-.92.24-1,.73-.07.46.25.94.74.99.23.03.46.07.69.12,1.16.26,2.14.83,2.93,1.72.3.34.56.71.82,1.08.3.43.82.53,1.23.25.41-.28.5-.8.21-1.24-.15-.22-.3-.44-.47-.66-1.17-1.56-2.71-2.55-4.63-2.91Z" style="fill:#ffcf3f;"/><path d="M33.4,59.7c-.44.2-.82.44-1.15.76-.42.41-.73.88-.86,1.46-.27,1.16.09,2.11,1,2.85.54.45,1.15.66,2,.74.04.06,0,.11,0,.16-.17.6-.35,1.2-.53,1.79-.08.26-.16.52-.23.77-.11.39-.43.55-.8.48-4.49-.83-8.98-1.66-13.47-2.48-.36-.07-.6-.34-.56-.74.08-.89.14-1.78.21-2.67.01-.15.01-.15.16-.11.61.16,1.22.2,1.83.04,1.01-.26,1.71-.86,2.04-1.86.18-.53.17-1.07.02-1.61-.15-.56-.43-1.05-.81-1.48-.06-.07-.12-.13-.18-.2,0-.04.03-.05.06-.07,1.12-.62,1.68-1.85,1.44-3.14-.14-.76-.49-1.41-1-1.98-.04-.05-.09-.09-.15-.16.61-.3,1.09-.73,1.42-1.33.32-.6.43-1.24.36-1.93,3.42.63,6.83,1.26,10.25,1.89-.6,1.33-.48,2.56.51,3.68-.52.24-.99.56-1.37.97-.46.5-.77,1.08-.88,1.76-.12.8.06,1.53.55,2.18.05.06.09.12.15.2Z" style="fill:#fff;"/><path d="M39.16,48.49c-.74-.07-1.45,0-2.13.23-.54.18-1.03.45-1.46.81-.09.07-.17.1-.29.08-3.8-.7-7.6-1.4-11.4-2.1-.11-.02-.17-.07-.23-.16-.58-1.01-1.44-1.69-2.52-2.11-.16-.06-.32-.1-.5-.16.15-.34.29-.68.44-1.02.04-.1.09-.21.14-.31.15-.34.48-.52.85-.45,1.05.19,2.09.38,3.14.58,4.4.81,8.8,1.62,13.2,2.43.13.02.27.04.38.13.19.14.32.32.34.56.03.47.05.93.07,1.4,0,.03,0,.05-.02.1Z" style="fill:#ee2939;"/><path d="M39.09,49.88c.5.09.92.28,1.24.64.45.51.54,1.09.35,1.73-.13.43-.37.8-.7,1.1-.84.77-1.83,1.07-2.96.86-.49-.09-.91-.32-1.21-.72-.46-.62-.46-1.28-.13-1.94.41-.83,1.1-1.31,1.97-1.57.49-.14.99-.18,1.45-.09Z" style="fill:#ffcf3f;"/><path d="M20.22,46.4c1.3.35,2.21,1.1,2.58,2.44.11.42.1.85-.06,1.25-.27.72-.96,1.17-1.75,1.13-1.13-.06-1.99-.6-2.61-1.53-.31-.47-.48-.99-.47-1.56.02-.99.78-1.76,1.78-1.77.18,0,.35,0,.53.04Z" style="fill:#ffcf3f;"/><path d="M35.62,59.42c-.32-.06-.62-.16-.88-.35-.69-.46-.91-1.27-.56-2.02.25-.53.65-.9,1.17-1.16.68-.35,1.4-.45,2.14-.26.26.06.5.17.71.32.68.47.88,1.28.51,2.03-.16.32-.37.59-.65.8-.72.56-1.53.77-2.43.63Z" style="fill:#ffcf3f;"/><path d="M20.08,56.57c-1.07-.26-1.86-.86-2.26-1.91-.17-.43-.18-.88,0-1.31.24-.6.73-.91,1.36-.98.59-.07,1.14.08,1.65.37.55.32.97.75,1.24,1.33.18.39.26.79.19,1.22-.1.61-.46,1.01-1.03,1.21-.37.13-.75.14-1.14.07Z" style="fill:#ffcf3f;"/><path d="M34.28,64.15c-.39-.06-.75-.19-1.07-.43-.61-.48-.75-1.23-.34-1.9.22-.36.53-.63.91-.81.81-.39,1.63-.43,2.45-.03.08.04.16.09.23.14.68.5.82,1.33.34,2.02-.42.59-1.02.88-1.71,1-.27.04-.54.04-.8,0Z" style="fill:#ffcf3f;"/><path d="M19.65,57.83c.78.19,1.32.53,1.72,1.06.33.43.51.91.41,1.47-.08.45-.33.77-.74.98-.41.21-.84.24-1.28.16-.77-.15-1.39-.54-1.83-1.19-.2-.29-.32-.61-.34-.97-.03-.63.29-1.15.88-1.39.43-.18.87-.17,1.18-.11Z" style="fill:#ffcf3f;"/><path d="M39.48,68.36c-.11.6-.67.99-1.26.89-.6-.1-1-.68-.89-1.28.11-.6.68-.99,1.27-.88.59.11.99.68.88,1.27ZM38.63,68.31c.05-.03.11-.02.17-.04.13-.03.21-.11.25-.23.09-.26-.01-.46-.29-.54-.21-.05-.42-.08-.63-.12-.08-.02-.12,0-.13.09-.07.41-.15.82-.23,1.23-.01.07,0,.12.08.14.1.02.12-.03.14-.11.02-.15.05-.29.08-.44,0-.03.01-.07.05-.09.07-.03.24.04.27.12.06.16.12.32.16.48.04.15.12.21.28.19-.04-.24-.15-.45-.21-.69Z" style="fill:#fff;"/><path d="M31.23,39.59c2.68.49,5.32.43,7.96-.04,1.71-.31,3.38-.79,5-1.42.18-.07.19-.07.18-.27,0-.22.02-.42.12-.62.12-.24.32-.33.58-.27.1.02.19.07.27.12.13.08.24.18.33.29.51.61.78,1.31.75,2.11,0,.15-.04.29-.1.43-.13.3-.4.4-.7.27-.19-.08-.33-.21-.47-.36q-.15-.16-.37-.08c-1.21.47-2.44.86-3.71,1.17-2.09.51-4.2.77-6.35.75-1.68-.01-3.34-.22-4.97-.61-2.56-.62-4.95-1.66-7.18-3.05-1.47-.91-2.83-1.95-4.11-3.11-.15-.13-.15-.13-.32-.05-.19.09-.39.17-.61.17-.29,0-.49-.15-.53-.44-.03-.2,0-.4.08-.58.28-.72.77-1.26,1.45-1.63.17-.09.35-.15.54-.17.38-.03.61.18.6.56,0,.2-.05.38-.13.55-.06.12-.03.19.06.27.62.55,1.25,1.08,1.92,1.58,1.6,1.2,3.3,2.22,5.14,3.01,1.04.45,2.11.82,3.21,1.1.46.12.93.21,1.36.3Z"/><path d="M26.69,27.1c-1.6-.32-3.04.06-4.37.97-.15.1-.29.21-.44.3-.4.25-.92.15-1.18-.24-.26-.38-.19-.9.18-1.18,1.05-.78,2.18-1.36,3.48-1.59,1.07-.19,2.13-.12,3.18.13.46.11.74.58.62,1.05-.11.46-.55.74-1.02.65-.15-.03-.31-.06-.46-.08Z"/><path d="M40.27,27.82c1.92.36,3.46,1.35,4.63,2.91.16.22.32.44.47.66.29.44.2.95-.21,1.24-.41.28-.93.18-1.23-.25-.26-.37-.52-.74-.82-1.08-.79-.89-1.77-1.46-2.93-1.72-.23-.05-.46-.09-.69-.12-.49-.05-.81-.54-.74-.99.08-.49.5-.8,1-.73.18.02.35.06.52.09Z"/><path d="M38.63,68.31c.06.23.16.45.21.69-.16.02-.25-.04-.28-.19-.04-.16-.1-.32-.16-.48-.03-.08-.19-.15-.27-.12-.04.02-.04.05-.05.09-.03.15-.06.29-.08.44-.01.08-.04.13-.14.11-.09-.02-.1-.06-.08-.14.08-.41.15-.82.23-1.23.01-.08.06-.1.13-.09.21.04.42.07.63.12.28.07.38.28.29.54-.04.12-.13.2-.25.23-.05.01-.11,0-.17.04ZM38.41,68.02s0,0,0,0c.08.01.15.03.23.04.09,0,.19,0,.22-.12.03-.09-.03-.19-.14-.22-.14-.04-.29-.06-.43-.09-.04,0-.06,0-.08.04-.1.21-.05.3.17.34.01,0,.03,0,.04,0Z" style="fill:#252021;"/><path d="M38.41,68.02s-.03,0-.04,0c-.22-.04-.27-.14-.17-.34.02-.04.04-.05.08-.04.14.03.29.05.43.09.12.03.17.13.14.22-.03.11-.12.12-.22.12-.08,0-.15-.03-.23-.04,0,0,0,0,0,0Z" style="fill:#fff;"/></g></svg>